<?xml version="1.0" standalone="no"?><svg xmlns:xlink="http://www.w3.org/1999/xlink" xmlns="http://www.w3.org/2000/svg" viewBox="0 0 1000 625.0053437529391" preserveAspectRatio="xMaxYMax slice"><g transform="scale(0.8550004702502587)"><rect x="0" y="0" width="1169.6" height="731" fill="#ffffff"/><rect x="0" y="0" width="73.1" height="73.1" fill="#ffffff"/><rect x="0" y="0" width="36.55" height="36.55" fill="#ffffff"/><circle cx="18.275" cy="18.275" r="18.275" fill="#ffffff"/><rect x="36.55" y="0" width="36.55" height="36.55" fill="#98cfa1"/><rect x="36.55" y="0" width="36.55" height="36.55" fill="#ffffff"/><rect x="0" y="36.55" width="36.55" height="36.55" fill="#98cfa1"/><circle cx="18.275" cy="54.824999999999996" r="18.275" fill="#ffffff"/><rect x="36.55" y="36.55" width="36.55" height="36.55" fill="#f2f9f3"/><rect x="36.55" y="36.55" width="36.55" height="36.55" fill="#e2f1e5"/><rect x="73.1" y="0" width="73.1" height="73.1" fill="#f9fcf9"/><rect x="73.1" y="0" width="73.1" height="73.1" fill="#4eab5c"/><rect x="146.2" y="0" width="73.1" height="73.1" fill="#4dab5b"/><path d="M 146.2 0 A 73.1 73.1 0 0 0 219.29999999999998 73.1 L 219.29999999999998 0" fill="#fefefe"/><rect x="219.3" y="0" width="73.1" height="73.1" fill="#80c38a"/><path d="M 219.3 0 A 73.1 73.1 0 0 0 292.4 73.1 L 292.4 0" fill="#93cc9b"/><rect x="292.4" y="0" width="73.1" height="73.1" fill="#ffffff"/><rect x="292.4" y="0" width="36.55" height="36.55" fill="#ffffff"/><path d="M 292.4 36.55 A 36.55 36.55 0 0 0 328.95 0 L 292.4 0" fill="#3ba34b"/><rect x="328.95" y="0" width="36.55" height="36.55" fill="#ffffff"/><path d="M 328.95 0 A 36.55 36.55 0 0 0 365.5 36.55 L 365.5 0" fill="#41a550"/><rect x="292.4" y="36.55" width="36.55" height="36.55" fill="#c8e5cd"/><path d="M 292.4 36.55 A 36.55 36.55 0 0 1 328.95 73.1 L 292.4 73.1" fill="#c2e2c7"/><rect x="328.95" y="36.55" width="36.55" height="36.55" fill="#ffffff"/><path d="M 328.95 73.1 A 36.55 36.55 0 0 1  365.5 36.55 L 365.5 73.1" fill="#fdfefe"/><rect x="365.5" y="0" width="73.1" height="73.1" fill="#ffffff"/><rect x="365.5" y="0" width="36.55" height="36.55" fill="#ffffff"/><path d="M 365.5 0 A 36.55 36.55 0 0 0 402.05 36.55 L 402.05 0" fill="#c3e3c8"/><rect x="402.05" y="0" width="36.55" height="36.55" fill="#c9e6ce"/><path d="M 402.05 36.55 A 36.55 36.55 0 0 0 438.6 0 L 402.05 0" fill="#aad7b1"/><rect x="365.5" y="36.55" width="36.55" height="36.55" fill="#7ec289"/><path d="M 365.5 73.1 A 36.55 36.55 0 0 1  402.05 36.55 L 402.05 73.1" fill="#79c084"/><rect x="402.05" y="36.55" width="36.55" height="36.55" fill="#ffffff"/><path d="M 402.05 36.55 A 36.55 36.55 0 0 1 438.6 73.1 L 402.05 73.1" fill="#cde7d1"/><rect x="438.6" y="0" width="73.1" height="73.1" fill="#ffffff"/><polygon points="438.6,0 511.70000000000005,0 438.6,73.1" fill="#ffffff"/><rect x="511.69999999999993" y="0" width="73.1" height="73.1" fill="#ffffff"/><rect x="511.7" y="0" width="36.55" height="36.55" fill="#ffffff"/><path d="M 511.7 36.55 A 36.55 36.55 0 0 0 548.25 0 L 511.7 0" fill="#f0f8f1"/><rect x="548.25" y="0" width="36.55" height="36.55" fill="#ffffff"/><path d="M 548.25 0 A 36.55 36.55 0 0 0 584.8 36.55 L 584.8 0" fill="#ffffff"/><rect x="511.7" y="36.55" width="36.55" height="36.55" fill="#ffffff"/><path d="M 511.7 36.55 A 36.55 36.55 0 0 1 548.25 73.1 L 511.7 73.1" fill="#9bd0a3"/><rect x="548.25" y="36.55" width="36.55" height="36.55" fill="#ffffff"/><path d="M 548.25 73.1 A 36.55 36.55 0 0 1  584.8 36.55 L 584.8 73.1" fill="#ffffff"/><rect x="584.8" y="0" width="73.1" height="73.1" fill="#ffffff"/><path d="M 584.8 0 A 73.1 73.1 0 0 1 657.9 73.1 L 584.8 73.1" fill="#ffffff"/><rect x="657.9" y="0" width="73.1" height="73.1" fill="#ffffff"/><rect x="657.9" y="0" width="36.55" height="36.55" fill="#d1e9d4"/><polygon points="694.4499999999999,0 694.4499999999999,36.55 657.9,36.55" fill="#ffffff"/><rect x="694.45" y="0" width="36.55" height="36.55" fill="#5fb46c"/><polygon points="694.45,0 731,36.55 694.45,36.55" fill="#ffffff"/><rect x="657.9" y="36.55" width="36.55" height="36.55" fill="#ffffff"/><polygon points="657.9,36.55 694.4499999999999,36.55 694.4499999999999,73.1" fill="#e7f4e9"/><rect x="694.45" y="36.55" width="36.55" height="36.55" fill="#76be81"/><polygon points="694.45,36.55 731,36.55 694.45,73.1" fill="#ffffff"/><rect x="731" y="0" width="73.1" height="73.1" fill="#ffffff"/><polygon points="731,0 804.1,0 731,73.1" fill="#5bb268"/><rect x="804.0999999999999" y="0" width="73.1" height="73.1" fill="#ffffff"/><rect x="804.1" y="0" width="36.55" height="36.55" fill="#ffffff"/><path d="M 804.1 36.55 A 36.55 36.55 0 0 1  840.65 0 L 840.65 36.55" fill="#ffffff"/><rect x="840.65" y="0" width="36.55" height="36.55" fill="#ffffff"/><path d="M 840.65 0 A 36.55 36.55 0 0 1 877.1999999999999 36.55 L 840.65 36.55" fill="#ffffff"/><rect x="804.1" y="36.55" width="36.55" height="36.55" fill="#ffffff"/><path d="M 804.1 36.55 A 36.55 36.55 0 0 0 840.65 73.1 L 840.65 36.55" fill="#b3dbb9"/><rect x="840.65" y="36.55" width="36.55" height="36.55" fill="#ffffff"/><path d="M 840.65 73.1 A 36.55 36.55 0 0 0 877.1999999999999 36.55 L 840.65 36.55" fill="#ffffff"/><rect x="877.1999999999999" y="0" width="73.1" height="73.1" fill="#ffffff"/><rect x="877.2" y="0" width="36.55" height="36.55" fill="#ffffff"/><polygon points="913.75,0 913.75,36.55 877.2,36.55" fill="#ffffff"/><rect x="913.75" y="0" width="36.55" height="36.55" fill="#ffffff"/><polygon points="913.75,0 950.3,36.55 913.75,36.55" fill="#a3d4ab"/><rect x="877.2" y="36.55" width="36.55" height="36.55" fill="#e6f3e8"/><polygon points="877.2,36.55 913.75,36.55 877.2,73.1" fill="#bcdfc2"/><rect x="913.75" y="36.55" width="36.55" height="36.55" fill="#ffffff"/><polygon points="913.75,36.55 950.3,36.55 950.3,73.1" fill="#b1dab7"/><rect x="950.3" y="0" width="73.1" height="73.1" fill="#ffffff"/><path d="M 950.3 73.1 A 73.1 73.1 0 0 0 1023.4 0 L 950.3 0" fill="#ffffff"/><rect x="1023.3999999999999" y="0" width="73.1" height="73.1" fill="#ffffff"/><rect x="1023.4" y="0" width="36.55" height="36.55" fill="#6dba79"/><path d="M 1023.4 36.55 A 36.55 36.55 0 0 1  1059.95 0 L 1059.95 36.55" fill="#64b670"/><rect x="1059.95" y="0" width="36.55" height="36.55" fill="#ffffff"/><path d="M 1059.95 0 A 36.55 36.55 0 0 1 1096.5 36.55 L 1059.95 36.55" fill="#c6e4cb"/><rect x="1023.4" y="36.55" width="36.55" height="36.55" fill="#ffffff"/><path d="M 1023.4 36.55 A 36.55 36.55 0 0 0 1059.95 73.1 L 1059.95 36.55" fill="#ffffff"/><rect x="1059.95" y="36.55" width="36.55" height="36.55" fill="#ffffff"/><path d="M 1059.95 73.1 A 36.55 36.55 0 0 0 1096.5 36.55 L 1059.95 36.55" fill="#afd9b5"/><rect x="1096.5" y="0" width="73.1" height="73.1" fill="#ffffff"/><rect x="1096.5" y="0" width="36.55" height="36.55" fill="#ffffff"/><circle cx="1114.775" cy="18.275" r="18.275" fill="#60b46c"/><rect x="1133.05" y="0" width="36.55" height="36.55" fill="#ffffff"/><rect x="1133.05" y="0" width="36.55" height="36.55" fill="#ffffff"/><rect x="1096.5" y="36.55" width="36.55" height="36.55" fill="#e9f4eb"/><circle cx="1114.775" cy="54.824999999999996" r="18.275" fill="#ffffff"/><rect x="1133.05" y="36.55" width="36.55" height="36.55" fill="#7bc085"/><rect x="1133.05" y="36.55" width="36.55" height="36.55" fill="#62b56f"/><rect x="0" y="73.1" width="73.1" height="73.1" fill="#ffffff"/><rect x="0" y="73.1" width="36.55" height="36.55" fill="#56af63"/><path d="M 0 109.64999999999999 A 36.55 36.55 0 0 1 36.55 73.1 L 36.55 82.2375 A 27.412499999999998 27.412499999999998 0 0 0 9.1375 109.64999999999999" fill="#fcfefd"/><rect x="36.55" y="73.1" width="36.55" height="36.55" fill="#97ce9f"/><path d="M 36.55 73.1 A 36.55 36.55 0 0 1 73.1 109.64999999999999 L 63.96249999999999 109.64999999999999 A 27.412499999999998 27.412499999999998 0 0 0 36.55 82.2375" fill="#ffffff"/><rect x="0" y="109.65" width="36.55" height="36.55" fill="#ffffff"/><path d="M 0 109.65 A 36.55 36.55 0 0 0 36.55 146.2 L 36.55 137.0625 A 27.412499999999998 27.412499999999998 0 0 1 9.1375 109.65" fill="#e6f3e8"/><rect x="36.55" y="109.65" width="36.55" height="36.55" fill="#b4dcba"/><path d="M 36.55 146.2 A 36.55 36.55 0 0 0 73.1 109.65 L 63.96249999999999 109.65 A 27.412499999999998 27.412499999999998 0 0 1 36.55 137.0625" fill="#ffffff"/><rect x="73.1" y="73.1" width="73.1" height="73.1" fill="#ffffff"/><rect x="73.1" y="73.1" width="36.55" height="36.55" fill="#ffffff"/><polygon points="109.64999999999999,73.1 109.64999999999999,109.64999999999999 73.1,109.64999999999999" fill="#ffffff"/><rect x="109.65" y="73.1" width="36.55" height="36.55" fill="#bee1c4"/><polygon points="109.65,73.1 146.2,109.64999999999999 109.65,109.64999999999999" fill="#ffffff"/><rect x="73.1" y="109.65" width="36.55" height="36.55" fill="#9ed1a6"/><polygon points="73.1,109.65 109.64999999999999,109.65 109.64999999999999,146.2" fill="#ffffff"/><rect x="109.65" y="109.65" width="36.55" height="36.55" fill="#badec0"/><polygon points="109.65,109.65 146.2,109.65 109.65,146.2" fill="#9ed1a6"/><rect x="146.2" y="73.1" width="73.1" height="73.1" fill="#ffffff"/><rect x="146.2" y="73.1" width="36.55" height="36.55" fill="#8eca97"/><polygon points="182.75,73.1 182.75,109.64999999999999 146.2,109.64999999999999" fill="#ffffff"/><rect x="182.75" y="73.1" width="36.55" height="36.55" fill="#a8d6af"/><polygon points="182.75,73.1 219.3,109.64999999999999 182.75,109.64999999999999" fill="#ffffff"/><rect x="146.2" y="109.65" width="36.55" height="36.55" fill="#ffffff"/><polygon points="146.2,109.65 182.75,109.65 146.2,146.2" fill="#cfe8d3"/><rect x="182.75" y="109.65" width="36.55" height="36.55" fill="#ffffff"/><polygon points="182.75,109.65 219.3,109.65 219.3,146.2" fill="#43a652"/><rect x="219.29999999999998" y="73.1" width="73.1" height="73.1" fill="#ffffff"/><rect x="219.3" y="73.1" width="36.55" height="36.55" fill="#77bf82"/><polygon points="255.85000000000002,73.1 255.85000000000002,109.64999999999999 219.3,109.64999999999999" fill="#ffffff"/><rect x="255.85" y="73.1" width="36.55" height="36.55" fill="#9fd2a7"/><polygon points="255.85,73.1 292.4,109.64999999999999 255.85,109.64999999999999" fill="#ffffff"/><rect x="219.3" y="109.65" width="36.55" height="36.55" fill="#90cb99"/><polygon points="219.3,109.65 255.85000000000002,109.65 255.85000000000002,146.2" fill="#d5ebd9"/><rect x="255.85" y="109.65" width="36.55" height="36.55" fill="#70bc7c"/><polygon points="255.85,109.65 292.4,109.65 255.85,146.2" fill="#ffffff"/><rect x="292.4" y="73.1" width="73.1" height="73.1" fill="#ffffff"/><polygon points="292.4,73.1 365.5,146.2 292.4,146.2" fill="#ffffff"/><rect x="365.5" y="73.1" width="73.1" height="73.1" fill="#ffffff"/><rect x="365.5" y="73.1" width="36.55" height="36.55" fill="#ffffff"/><circle cx="383.775" cy="91.375" r="18.275" fill="#ffffff"/><rect x="402.05" y="73.1" width="36.55" height="36.55" fill="#85c58f"/><rect x="402.05" y="73.1" width="36.55" height="36.55" fill="#ffffff"/><rect x="365.5" y="109.65" width="36.55" height="36.55" fill="#45a754"/><circle cx="383.775" cy="127.92500000000001" r="18.275" fill="#ffffff"/><rect x="402.05" y="109.65" width="36.55" height="36.55" fill="#cde7d1"/><rect x="402.05" y="109.65" width="36.55" height="36.55" fill="#6fbb7b"/><rect x="438.6" y="73.1" width="73.1" height="73.1" fill="#ffffff"/><polygon points="438.6,73.1 511.70000000000005,146.2 438.6,146.2" fill="#4aa958"/><rect x="511.7" y="73.1" width="73.1" height="73.1" fill="#8cc996"/><polygon points="584.8,73.1 584.8,146.2 511.7,146.2" fill="#ffffff"/><rect x="584.8" y="73.1" width="73.1" height="73.1" fill="#ffffff"/><rect x="584.8" y="73.1" width="36.55" height="36.55" fill="#ffffff"/><polygon points="621.3499999999999,73.1 621.3499999999999,109.64999999999999 584.8,109.64999999999999" fill="#ffffff"/><rect x="621.35" y="73.1" width="36.55" height="36.55" fill="#ffffff"/><polygon points="621.35,73.1 657.9,109.64999999999999 621.35,109.64999999999999" fill="#ffffff"/><rect x="584.8" y="109.65" width="36.55" height="36.55" fill="#ffffff"/><polygon points="584.8,109.65 621.3499999999999,109.65 621.3499999999999,146.2" fill="#c7e5cc"/><rect x="621.35" y="109.65" width="36.55" height="36.55" fill="#cbe7cf"/><polygon points="621.35,109.65 657.9,109.65 621.35,146.2" fill="#ffffff"/><rect x="657.9" y="73.1" width="73.1" height="73.1" fill="#ffffff"/><polygon points="657.9,73.1 731,73.1 731,146.2" fill="#ffffff"/><rect x="731" y="73.1" width="73.1" height="73.1" fill="#7ec289"/><path d="M 731 146.2 A 73.1 73.1 0 0 1  804.1 73.1 L 731 146.2 A 73.1 73.1 0 0 0 804.1 73.1" fill="#ffffff"/><rect x="804.1" y="73.1" width="73.1" height="73.1" fill="#ffffff"/><polygon points="804.1,73.1 877.2,146.2 804.1,146.2" fill="#80c38b"/><rect x="877.2" y="73.1" width="73.1" height="73.1" fill="#ffffff"/><polygon points="877.2,73.1 950.3000000000001,73.1 950.3000000000001,146.2" fill="#ffffff"/><rect x="950.3" y="73.1" width="73.1" height="73.1" fill="#ffffff"/><rect x="950.3" y="73.1" width="36.55" height="36.55" fill="#ffffff"/><path d="M 950.3 109.64999999999999 A 36.55 36.55 0 0 0 986.8499999999999 73.1 L 950.3 73.1" fill="#62b56f"/><rect x="986.85" y="73.1" width="36.55" height="36.55" fill="#ffffff"/><path d="M 986.85 73.1 A 36.55 36.55 0 0 0 1023.4 109.64999999999999 L 1023.4 73.1" fill="#ffffff"/><rect x="950.3" y="109.65" width="36.55" height="36.55" fill="#ffffff"/><path d="M 950.3 109.65 A 36.55 36.55 0 0 1 986.8499999999999 146.2 L 950.3 146.2" fill="#ffffff"/><rect x="986.85" y="109.65" width="36.55" height="36.55" fill="#ffffff"/><path d="M 986.85 146.2 A 36.55 36.55 0 0 1  1023.4 109.65 L 1023.4 146.2" fill="#6ab976"/><rect x="1023.3999999999999" y="73.1" width="73.1" height="73.1" fill="#ffffff"/><rect x="1023.4" y="73.1" width="36.55" height="36.55" fill="#85c58f"/><path d="M 1023.4 73.1 A 36.55 36.55 0 0 0 1059.95 109.64999999999999 L 1059.95 73.1" fill="#ffffff"/><rect x="1059.95" y="73.1" width="36.55" height="36.55" fill="#ffffff"/><path d="M 1059.95 109.64999999999999 A 36.55 36.55 0 0 0 1096.5 73.1 L 1059.95 73.1" fill="#ffffff"/><rect x="1023.4" y="109.65" width="36.55" height="36.55" fill="#50ad5f"/><path d="M 1023.4 146.2 A 36.55 36.55 0 0 1  1059.95 109.65 L 1059.95 146.2" fill="#86c690"/><rect x="1059.95" y="109.65" width="36.55" height="36.55" fill="#ffffff"/><path d="M 1059.95 109.65 A 36.55 36.55 0 0 1 1096.5 146.2 L 1059.95 146.2" fill="#ffffff"/><rect x="1096.5" y="73.1" width="73.1" height="73.1" fill="#ffffff"/><rect x="1096.5" y="73.1" width="36.55" height="36.55" fill="#fcfefd"/><polygon points="1133.05,73.1 1133.05,109.64999999999999 1096.5,109.64999999999999" fill="#a9d6b0"/><rect x="1133.05" y="73.1" width="36.55" height="36.55" fill="#a8d6af"/><polygon points="1133.05,73.1 1169.6,73.1 1133.05,109.64999999999999" fill="#62b56f"/><rect x="1096.5" y="109.65" width="36.55" height="36.55" fill="#72bc7d"/><polygon points="1096.5,109.65 1133.05,109.65 1133.05,146.2" fill="#b9debf"/><rect x="1133.05" y="109.65" width="36.55" height="36.55" fill="#ffffff"/><polygon points="1133.05,109.65 1169.6,146.2 1133.05,146.2" fill="#92cc9b"/><rect x="0" y="146.2" width="73.1" height="73.1" fill="#ffffff"/><rect x="0" y="146.2" width="36.55" height="36.55" fill="#ffffff"/><polygon points="36.55,146.2 36.55,182.75 0,182.75" fill="#cee8d2"/><rect x="36.55" y="146.2" width="36.55" height="36.55" fill="#ffffff"/><polygon points="36.55,146.2 73.1,182.75 36.55,182.75" fill="#ffffff"/><rect x="0" y="182.75" width="36.55" height="36.55" fill="#e0f0e3"/><polygon points="0,182.75 36.55,182.75 0,219.3" fill="#ffffff"/><rect x="36.55" y="182.75" width="36.55" height="36.55" fill="#57b065"/><polygon points="36.55,182.75 73.1,182.75 73.1,219.3" fill="#ffffff"/><rect x="73.1" y="146.2" width="73.1" height="73.1" fill="#ffffff"/><rect x="73.1" y="146.2" width="73.1" height="73.1" fill="#7bc186"/><rect x="146.2" y="146.2" width="73.1" height="73.1" fill="#ffffff"/><rect x="146.2" y="146.2" width="36.55" height="36.55" fill="#d7ecda"/><polygon points="182.75,146.2 182.75,182.75 146.2,182.75" fill="#64b671"/><rect x="182.75" y="146.2" width="36.55" height="36.55" fill="#ffffff"/><polygon points="182.75,146.2 219.3,146.2 182.75,182.75" fill="#bde0c2"/><rect x="146.2" y="182.75" width="36.55" height="36.55" fill="#ffffff"/><polygon points="146.2,182.75 182.75,182.75 182.75,219.3" fill="#ffffff"/><rect x="182.75" y="182.75" width="36.55" height="36.55" fill="#ffffff"/><polygon points="182.75,182.75 219.3,219.3 182.75,219.3" fill="#ebf6ed"/><rect x="219.29999999999998" y="146.2" width="73.1" height="73.1" fill="#ffffff"/><rect x="219.3" y="146.2" width="36.55" height="36.55" fill="#86c690"/><polygon points="255.85000000000002,146.2 255.85000000000002,182.75 219.3,182.75" fill="#8ac894"/><rect x="255.85" y="146.2" width="36.55" height="36.55" fill="#ffffff"/><polygon points="255.85,146.2 292.4,146.2 255.85,182.75" fill="#71bc7c"/><rect x="219.3" y="182.75" width="36.55" height="36.55" fill="#8fca98"/><polygon points="219.3,182.75 255.85000000000002,182.75 255.85000000000002,219.3" fill="#b5dcbb"/><rect x="255.85" y="182.75" width="36.55" height="36.55" fill="#ffffff"/><polygon points="255.85,182.75 292.4,219.3 255.85,219.3" fill="#ffffff"/><rect x="292.4" y="146.2" width="73.1" height="73.1" fill="#ffffff"/><rect x="292.4" y="146.2" width="36.55" height="36.55" fill="#5cb269"/><circle cx="310.67499999999995" cy="164.475" r="18.275" fill="#ffffff"/><rect x="328.95" y="146.2" width="36.55" height="36.55" fill="#b8ddbd"/><rect x="328.95" y="146.2" width="36.55" height="36.55" fill="#e4f2e6"/><rect x="292.4" y="182.75" width="36.55" height="36.55" fill="#ffffff"/><circle cx="310.67499999999995" cy="201.025" r="18.275" fill="#81c48c"/><rect x="328.95" y="182.75" width="36.55" height="36.55" fill="#ffffff"/><rect x="328.95" y="182.75" width="36.55" height="36.55" fill="#ffffff"/><rect x="365.5" y="146.2" width="73.1" height="73.1" fill="#ffffff"/><polygon points="365.5,146.2 438.6,146.2 438.6,219.29999999999998" fill="#ffffff"/><rect x="438.59999999999997" y="146.2" width="73.1" height="73.1" fill="#ffffff"/><rect x="438.6" y="146.2" width="36.55" height="36.55" fill="#ffffff"/><circle cx="456.875" cy="164.475" r="18.275" fill="#76be81"/><rect x="475.15" y="146.2" width="36.55" height="36.55" fill="#59b167"/><rect x="475.15" y="146.2" width="36.55" height="36.55" fill="#ffffff"/><rect x="438.6" y="182.75" width="36.55" height="36.55" fill="#ffffff"/><circle cx="456.875" cy="201.025" r="18.275" fill="#ecf6ee"/><rect x="475.15" y="182.75" width="36.55" height="36.55" fill="#ebf6ed"/><rect x="475.15" y="182.75" width="36.55" height="36.55" fill="#c8e5cd"/><rect x="511.69999999999993" y="146.2" width="73.1" height="73.1" fill="#ffffff"/><rect x="511.7" y="146.2" width="36.55" height="36.55" fill="#93cc9c"/><polygon points="548.25,146.2 548.25,182.75 511.7,182.75" fill="#f8fcf8"/><rect x="548.25" y="146.2" width="36.55" height="36.55" fill="#4eab5c"/><polygon points="548.25,146.2 584.8,182.75 548.25,182.75" fill="#ffffff"/><rect x="511.7" y="182.75" width="36.55" height="36.55" fill="#d5ebd9"/><polygon points="511.7,182.75 548.25,182.75 548.25,219.3" fill="#48a857"/><rect x="548.25" y="182.75" width="36.55" height="36.55" fill="#59b167"/><polygon points="548.25,182.75 584.8,182.75 548.25,219.3" fill="#ffffff"/><rect x="584.8" y="146.2" width="73.1" height="73.1" fill="#e7f4e9"/><rect x="584.8" y="146.2" width="73.1" height="73.1" fill="#ffffff"/><rect x="657.9" y="146.2" width="73.1" height="73.1" fill="#ffffff"/><rect x="657.9" y="146.2" width="73.1" height="73.1" fill="#a8d6af"/><rect x="731" y="146.2" width="73.1" height="73.1" fill="#ffffff"/><polygon points="804.1,146.2 804.1,219.29999999999998 731,219.29999999999998" fill="#e3f2e5"/><rect x="804.1" y="146.2" width="73.1" height="73.1" fill="#47a856"/><rect x="804.1" y="146.2" width="73.1" height="73.1" fill="#43a652"/><rect x="877.1999999999999" y="146.2" width="73.1" height="73.1" fill="#ffffff"/><rect x="877.2" y="146.2" width="36.55" height="36.55" fill="#ffffff"/><path d="M 877.2 182.75 A 36.55 36.55 0 0 1  913.75 146.2 L 913.75 182.75" fill="#ffffff"/><rect x="913.75" y="146.2" width="36.55" height="36.55" fill="#ffffff"/><path d="M 913.75 146.2 A 36.55 36.55 0 0 1 950.3 182.75 L 913.75 182.75" fill="#ffffff"/><rect x="877.2" y="182.75" width="36.55" height="36.55" fill="#abd7b2"/><path d="M 877.2 182.75 A 36.55 36.55 0 0 0 913.75 219.3 L 913.75 182.75" fill="#ffffff"/><rect x="913.75" y="182.75" width="36.55" height="36.55" fill="#3ea44e"/><path d="M 913.75 219.3 A 36.55 36.55 0 0 0 950.3 182.75 L 913.75 182.75" fill="#ffffff"/><rect x="950.3" y="146.2" width="73.1" height="73.1" fill="#ffffff"/><rect x="950.3" y="146.2" width="36.55" height="36.55" fill="#ffffff"/><path d="M 950.3 146.2 A 36.55 36.55 0 0 0 986.8499999999999 182.75 L 986.8499999999999 146.2" fill="#3ea44e"/><rect x="986.85" y="146.2" width="36.55" height="36.55" fill="#ffffff"/><path d="M 986.85 182.75 A 36.55 36.55 0 0 0 1023.4 146.2 L 986.85 146.2" fill="#ffffff"/><rect x="950.3" y="182.75" width="36.55" height="36.55" fill="#e7f4e9"/><path d="M 950.3 219.3 A 36.55 36.55 0 0 1  986.8499999999999 182.75 L 986.8499999999999 219.3" fill="#79c084"/><rect x="986.85" y="182.75" width="36.55" height="36.55" fill="#bde0c2"/><path d="M 986.85 182.75 A 36.55 36.55 0 0 1 1023.4 219.3 L 986.85 219.3" fill="#ffffff"/><rect x="1023.4" y="146.2" width="73.1" height="73.1" fill="#71bc7c"/><path d="M 1023.4 146.2 A 73.1 73.1 0 0 1 1096.5 219.29999999999998 L 1023.4 219.29999999999998" fill="#aed9b4"/><rect x="1096.5" y="146.2" width="73.1" height="73.1" fill="#ffffff"/><rect x="1096.5" y="146.2" width="36.55" height="36.55" fill="#9acfa2"/><polygon points="1133.05,146.2 1133.05,182.75 1096.5,182.75" fill="#4caa5a"/><rect x="1133.05" y="146.2" width="36.55" height="36.55" fill="#ffffff"/><polygon points="1133.05,146.2 1169.6,182.75 1133.05,182.75" fill="#ffffff"/><rect x="1096.5" y="182.75" width="36.55" height="36.55" fill="#c7e5cc"/><polygon points="1096.5,182.75 1133.05,182.75 1133.05,219.3" fill="#4dab5c"/><rect x="1133.05" y="182.75" width="36.55" height="36.55" fill="#4aaa59"/><polygon points="1133.05,182.75 1169.6,182.75 1133.05,219.3" fill="#fdfefd"/><rect x="0" y="219.3" width="73.1" height="73.1" fill="#ffffff"/><path d="M 0 219.3 A 73.1 73.1 0 0 0 73.1 292.4 L 73.1 219.3" fill="#76be81"/><rect x="73.1" y="219.3" width="73.1" height="73.1" fill="#fdfefd"/><polygon points="73.1,219.3 146.2,292.4 73.1,292.4" fill="#cce7d0"/><rect x="146.2" y="219.3" width="73.1" height="73.1" fill="#eaf5ec"/><polygon points="219.29999999999998,219.3 219.29999999999998,292.4 146.2,292.4" fill="#5db36b"/><rect x="219.3" y="219.3" width="73.1" height="73.1" fill="#ffffff"/><polygon points="292.4,219.3 292.4,292.4 219.3,292.4" fill="#d5ebd8"/><rect x="292.4" y="219.29999999999998" width="73.1" height="73.1" fill="#ffffff"/><rect x="292.4" y="219.3" width="36.55" height="36.55" fill="#74be80"/><path d="M 292.4 255.85000000000002 A 36.55 36.55 0 0 1 328.95 219.3 L 328.95 228.4375 A 27.412499999999998 27.412499999999998 0 0 0 301.53749999999997 255.85000000000002" fill="#ecf6ee"/><rect x="328.95" y="219.3" width="36.55" height="36.55" fill="#92cc9b"/><path d="M 328.95 219.3 A 36.55 36.55 0 0 1 365.5 255.85000000000002 L 356.3625 255.85000000000002 A 27.412499999999998 27.412499999999998 0 0 0 328.95 228.4375" fill="#ffffff"/><rect x="292.4" y="255.85" width="36.55" height="36.55" fill="#bbdfc1"/><path d="M 292.4 255.85 A 36.55 36.55 0 0 0 328.95 292.4 L 328.95 283.2625 A 27.412499999999998 27.412499999999998 0 0 1 301.53749999999997 255.85" fill="#ffffff"/><rect x="328.95" y="255.85" width="36.55" height="36.55" fill="#ffffff"/><path d="M 328.95 292.4 A 36.55 36.55 0 0 0 365.5 255.85 L 356.3625 255.85 A 27.412499999999998 27.412499999999998 0 0 1 328.95 283.2625" fill="#a4d4ac"/><rect x="365.5" y="219.3" width="73.1" height="73.1" fill="#ffffff"/><path d="M 365.5 219.3 A 73.1 73.1 0 0 0 438.6 292.4 L 438.6 219.3" fill="#58b066"/><rect x="438.59999999999997" y="219.29999999999998" width="73.1" height="73.1" fill="#ffffff"/><rect x="438.6" y="219.3" width="36.55" height="36.55" fill="#ffffff"/><polygon points="475.15000000000003,219.3 475.15000000000003,255.85000000000002 438.6,255.85000000000002" fill="#ffffff"/><rect x="475.15" y="219.3" width="36.55" height="36.55" fill="#e0f0e2"/><polygon points="475.15,219.3 511.7,255.85000000000002 475.15,255.85000000000002" fill="#87c691"/><rect x="438.6" y="255.85" width="36.55" height="36.55" fill="#bcdfc2"/><polygon points="438.6,255.85 475.15000000000003,255.85 475.15000000000003,292.4" fill="#b2dab8"/><rect x="475.15" y="255.85" width="36.55" height="36.55" fill="#55af63"/><polygon points="475.15,255.85 511.7,255.85 475.15,292.4" fill="#ffffff"/><rect x="511.7" y="219.3" width="73.1" height="73.1" fill="#d9eddc"/><rect x="511.7" y="219.3" width="73.1" height="73.1" fill="#ffffff"/><rect x="584.8" y="219.3" width="73.1" height="73.1" fill="#ffffff"/><rect x="584.8" y="219.3" width="73.1" height="73.1" fill="#f9fcf9"/><rect x="657.9" y="219.3" width="73.1" height="73.1" fill="#51ad5f"/><rect x="657.9" y="219.3" width="73.1" height="73.1" fill="#d3ead7"/><rect x="731" y="219.3" width="73.1" height="73.1" fill="#75be81"/><rect x="731" y="219.3" width="73.1" height="73.1" fill="#9bd0a3"/><rect x="804.0999999999999" y="219.29999999999998" width="73.1" height="73.1" fill="#ffffff"/><rect x="804.1" y="219.3" width="36.55" height="36.55" fill="#eaf5ec"/><path d="M 804.1 255.85000000000002 A 36.55 36.55 0 0 0 840.65 219.3 L 804.1 219.3" fill="#fbfdfb"/><rect x="840.65" y="219.3" width="36.55" height="36.55" fill="#ffffff"/><path d="M 840.65 219.3 A 36.55 36.55 0 0 0 877.1999999999999 255.85000000000002 L 877.1999999999999 219.3" fill="#92cb9b"/><rect x="804.1" y="255.85" width="36.55" height="36.55" fill="#ffffff"/><path d="M 804.1 255.85 A 36.55 36.55 0 0 1 840.65 292.4 L 804.1 292.4" fill="#ffffff"/><rect x="840.65" y="255.85" width="36.55" height="36.55" fill="#ffffff"/><path d="M 840.65 292.4 A 36.55 36.55 0 0 1  877.1999999999999 255.85 L 877.1999999999999 292.4" fill="#65b671"/><rect x="877.2" y="219.3" width="73.1" height="73.1" fill="#4aaa59"/><path d="M 877.2 292.4 A 73.1 73.1 0 0 1  950.3000000000001 219.3 L 877.2 292.4 A 73.1 73.1 0 0 0 950.3000000000001 219.3" fill="#ffffff"/><rect x="950.3" y="219.3" width="73.1" height="73.1" fill="#b3dbba"/><rect x="950.3" y="219.3" width="73.1" height="73.1" fill="#bfe1c4"/><rect x="1023.3999999999999" y="219.29999999999998" width="73.1" height="73.1" fill="#ffffff"/><rect x="1023.4" y="219.3" width="36.55" height="36.55" fill="#acd8b2"/><path d="M 1023.4 219.3 A 36.55 36.55 0 0 1 1059.95 255.85000000000002 L 1023.4 255.85000000000002" fill="#ffffff"/><rect x="1059.95" y="219.3" width="36.55" height="36.55" fill="#ffffff"/><path d="M 1059.95 255.85000000000002 A 36.55 36.55 0 0 1  1096.5 219.3 L 1096.5 255.85000000000002" fill="#ffffff"/><rect x="1023.4" y="255.85" width="36.55" height="36.55" fill="#8cc995"/><path d="M 1023.4 292.4 A 36.55 36.55 0 0 0 1059.95 255.85 L 1023.4 255.85" fill="#ffffff"/><rect x="1059.95" y="255.85" width="36.55" height="36.55" fill="#d2ead5"/><path d="M 1059.95 255.85 A 36.55 36.55 0 0 0 1096.5 292.4 L 1096.5 255.85" fill="#89c793"/><rect x="1096.5" y="219.3" width="73.1" height="73.1" fill="#4dab5c"/><rect x="1096.5" y="219.3" width="73.1" height="73.1" fill="#8dc997"/><rect x="0" y="292.4" width="73.1" height="73.1" fill="#ffffff"/><rect x="0" y="292.4" width="36.55" height="36.55" fill="#46a855"/><polygon points="36.55,292.4 36.55,328.95 0,328.95" fill="#ffffff"/><rect x="36.55" y="292.4" width="36.55" height="36.55" fill="#ffffff"/><polygon points="36.55,292.4 73.1,292.4 36.55,328.95" fill="#ffffff"/><rect x="0" y="328.95" width="36.55" height="36.55" fill="#ffffff"/><polygon points="0,328.95 36.55,328.95 36.55,365.5" fill="#fbfdfc"/><rect x="36.55" y="328.95" width="36.55" height="36.55" fill="#e1f1e4"/><polygon points="36.55,328.95 73.1,365.5 36.55,365.5" fill="#ffffff"/><rect x="73.1" y="292.4" width="73.1" height="73.1" fill="#ffffff"/><rect x="73.1" y="292.4" width="36.55" height="36.55" fill="#ffffff"/><path d="M 73.1 292.4 A 36.55 36.55 0 0 0 109.64999999999999 328.95 L 109.64999999999999 292.4" fill="#ffffff"/><rect x="109.65" y="292.4" width="36.55" height="36.55" fill="#62b56f"/><path d="M 109.65 328.95 A 36.55 36.55 0 0 0 146.2 292.4 L 109.65 292.4" fill="#65b672"/><rect x="73.1" y="328.95" width="36.55" height="36.55" fill="#ffffff"/><path d="M 73.1 365.5 A 36.55 36.55 0 0 1  109.64999999999999 328.95 L 109.64999999999999 365.5" fill="#71bc7c"/><rect x="109.65" y="328.95" width="36.55" height="36.55" fill="#ffffff"/><path d="M 109.65 328.95 A 36.55 36.55 0 0 1 146.2 365.5 L 109.65 365.5" fill="#59b166"/><rect x="146.2" y="292.4" width="73.1" height="73.1" fill="#ffffff"/><rect x="146.2" y="292.4" width="36.55" height="36.55" fill="#ffffff"/><circle cx="164.475" cy="310.67499999999995" r="18.275" fill="#ffffff"/><rect x="182.75" y="292.4" width="36.55" height="36.55" fill="#c7e4cb"/><rect x="182.75" y="292.4" width="36.55" height="36.55" fill="#ffffff"/><rect x="146.2" y="328.95" width="36.55" height="36.55" fill="#ffffff"/><circle cx="164.475" cy="347.22499999999997" r="18.275" fill="#ffffff"/><rect x="182.75" y="328.95" width="36.55" height="36.55" fill="#fdfefd"/><rect x="182.75" y="328.95" width="36.55" height="36.55" fill="#ffffff"/><rect x="219.29999999999998" y="292.4" width="73.1" height="73.1" fill="#ffffff"/><rect x="219.3" y="292.4" width="36.55" height="36.55" fill="#ffffff"/><path d="M 219.3 328.95 A 36.55 36.55 0 0 1 255.85000000000002 292.4 L 255.85000000000002 301.53749999999997 A 27.412499999999998 27.412499999999998 0 0 0 228.4375 328.95" fill="#ffffff"/><rect x="255.85" y="292.4" width="36.55" height="36.55" fill="#ebf6ed"/><path d="M 255.85 292.4 A 36.55 36.55 0 0 1 292.4 328.95 L 283.2625 328.95 A 27.412499999999998 27.412499999999998 0 0 0 255.85 301.53749999999997" fill="#ffffff"/><rect x="219.3" y="328.95" width="36.55" height="36.55" fill="#e3f2e5"/><path d="M 219.3 328.95 A 36.55 36.55 0 0 0 255.85000000000002 365.5 L 255.85000000000002 356.3625 A 27.412499999999998 27.412499999999998 0 0 1 228.4375 328.95" fill="#ffffff"/><rect x="255.85" y="328.95" width="36.55" height="36.55" fill="#acd8b3"/><path d="M 255.85 365.5 A 36.55 36.55 0 0 0 292.4 328.95 L 283.2625 328.95 A 27.412499999999998 27.412499999999998 0 0 1 255.85 356.3625" fill="#f0f8f2"/><rect x="292.4" y="292.4" width="73.1" height="73.1" fill="#ffffff"/><rect x="292.4" y="292.4" width="36.55" height="36.55" fill="#ffffff"/><circle cx="310.67499999999995" cy="310.67499999999995" r="18.275" fill="#d6ecd9"/><rect x="328.95" y="292.4" width="36.55" height="36.55" fill="#70bc7c"/><rect x="328.95" y="292.4" width="36.55" height="36.55" fill="#ffffff"/><rect x="292.4" y="328.95" width="36.55" height="36.55" fill="#ffffff"/><circle cx="310.67499999999995" cy="347.22499999999997" r="18.275" fill="#b1dab7"/><rect x="328.95" y="328.95" width="36.55" height="36.55" fill="#ffffff"/><rect x="328.95" y="328.95" width="36.55" height="36.55" fill="#c5e4ca"/><rect x="365.5" y="292.4" width="73.1" height="73.1" fill="#ffffff"/><rect x="365.5" y="292.4" width="36.55" height="36.55" fill="#ffffff"/><path d="M 365.5 292.4 A 36.55 36.55 0 0 0 402.05 328.95 L 402.05 292.4" fill="#fcfdfc"/><rect x="402.05" y="292.4" width="36.55" height="36.55" fill="#c2e2c7"/><path d="M 402.05 328.95 A 36.55 36.55 0 0 0 438.6 292.4 L 402.05 292.4" fill="#5bb268"/><rect x="365.5" y="328.95" width="36.55" height="36.55" fill="#c1e2c6"/><path d="M 365.5 365.5 A 36.55 36.55 0 0 1  402.05 328.95 L 402.05 365.5" fill="#ffffff"/><rect x="402.05" y="328.95" width="36.55" height="36.55" fill="#ffffff"/><path d="M 402.05 328.95 A 36.55 36.55 0 0 1 438.6 365.5 L 402.05 365.5" fill="#d9eddc"/><rect x="438.59999999999997" y="292.4" width="73.1" height="73.1" fill="#ffffff"/><rect x="438.6" y="292.4" width="36.55" height="36.55" fill="#f1f8f2"/><path d="M 438.6 292.4 A 36.55 36.55 0 0 0 475.15000000000003 328.95 L 475.15000000000003 292.4" fill="#ffffff"/><rect x="475.15" y="292.4" width="36.55" height="36.55" fill="#d3ead7"/><path d="M 475.15 328.95 A 36.55 36.55 0 0 0 511.7 292.4 L 475.15 292.4" fill="#ffffff"/><rect x="438.6" y="328.95" width="36.55" height="36.55" fill="#daeedd"/><path d="M 438.6 365.5 A 36.55 36.55 0 0 1  475.15000000000003 328.95 L 475.15000000000003 365.5" fill="#ffffff"/><rect x="475.15" y="328.95" width="36.55" height="36.55" fill="#dcefdf"/><path d="M 475.15 328.95 A 36.55 36.55 0 0 1 511.7 365.5 L 475.15 365.5" fill="#6dba79"/><rect x="511.69999999999993" y="292.4" width="73.1" height="73.1" fill="#ffffff"/><rect x="511.7" y="292.4" width="36.55" height="36.55" fill="#e1f1e3"/><path d="M 511.7 292.4 A 36.55 36.55 0 0 0 548.25 328.95 L 548.25 292.4" fill="#ffffff"/><rect x="548.25" y="292.4" width="36.55" height="36.55" fill="#eaf5ec"/><path d="M 548.25 328.95 A 36.55 36.55 0 0 0 584.8 292.4 L 548.25 292.4" fill="#ffffff"/><rect x="511.7" y="328.95" width="36.55" height="36.55" fill="#ffffff"/><path d="M 511.7 365.5 A 36.55 36.55 0 0 1  548.25 328.95 L 548.25 365.5" fill="#ffffff"/><rect x="548.25" y="328.95" width="36.55" height="36.55" fill="#ffffff"/><path d="M 548.25 328.95 A 36.55 36.55 0 0 1 584.8 365.5 L 548.25 365.5" fill="#9ed1a6"/><rect x="584.8" y="292.4" width="73.1" height="73.1" fill="#ffffff"/><rect x="584.8" y="292.4" width="36.55" height="36.55" fill="#e8f4ea"/><path d="M 584.8 292.4 A 36.55 36.55 0 0 0 621.3499999999999 328.95 L 621.3499999999999 292.4" fill="#ffffff"/><rect x="621.35" y="292.4" width="36.55" height="36.55" fill="#ffffff"/><path d="M 621.35 328.95 A 36.55 36.55 0 0 0 657.9 292.4 L 621.35 292.4" fill="#54ae62"/><rect x="584.8" y="328.95" width="36.55" height="36.55" fill="#7bc085"/><path d="M 584.8 365.5 A 36.55 36.55 0 0 1  621.3499999999999 328.95 L 621.3499999999999 365.5" fill="#feffff"/><rect x="621.35" y="328.95" width="36.55" height="36.55" fill="#ffffff"/><path d="M 621.35 328.95 A 36.55 36.55 0 0 1 657.9 365.5 L 621.35 365.5" fill="#3ca34c"/><rect x="657.9" y="292.4" width="73.1" height="73.1" fill="#ffffff"/><rect x="657.9" y="292.4" width="36.55" height="36.55" fill="#ffffff"/><polygon points="694.4499999999999,292.4 694.4499999999999,328.95 657.9,328.95" fill="#a3d4aa"/><rect x="694.45" y="292.4" width="36.55" height="36.55" fill="#ffffff"/><polygon points="694.45,292.4 731,328.95 694.45,328.95" fill="#85c68f"/><rect x="657.9" y="328.95" width="36.55" height="36.55" fill="#ffffff"/><polygon points="657.9,328.95 694.4499999999999,328.95 657.9,365.5" fill="#48a957"/><rect x="694.45" y="328.95" width="36.55" height="36.55" fill="#ffffff"/><polygon points="694.45,328.95 731,328.95 731,365.5" fill="#ffffff"/><rect x="731" y="292.4" width="73.1" height="73.1" fill="#ffffff"/><path d="M 731 365.5 A 73.1 73.1 0 0 1  804.1 292.4 L 804.1 365.5" fill="#ffffff"/><rect x="804.0999999999999" y="292.4" width="73.1" height="73.1" fill="#ffffff"/><rect x="804.1" y="292.4" width="36.55" height="36.55" fill="#ffffff"/><path d="M 804.1 292.4 A 36.55 36.55 0 0 1 840.65 328.95 L 804.1 328.95" fill="#ffffff"/><rect x="840.65" y="292.4" width="36.55" height="36.55" fill="#91cb9a"/><path d="M 840.65 328.95 A 36.55 36.55 0 0 1  877.1999999999999 292.4 L 877.1999999999999 328.95" fill="#ffffff"/><rect x="804.1" y="328.95" width="36.55" height="36.55" fill="#a9d7b0"/><path d="M 804.1 365.5 A 36.55 36.55 0 0 0 840.65 328.95 L 804.1 328.95" fill="#ffffff"/><rect x="840.65" y="328.95" width="36.55" height="36.55" fill="#f7fbf8"/><path d="M 840.65 328.95 A 36.55 36.55 0 0 0 877.1999999999999 365.5 L 877.1999999999999 328.95" fill="#ffffff"/><rect x="877.2" y="292.4" width="73.1" height="73.1" fill="#ffffff"/><polygon points="950.3000000000001,292.4 950.3000000000001,365.5 877.2,365.5" fill="#ffffff"/><rect x="950.3" y="292.4" width="73.1" height="73.1" fill="#9fd2a7"/><rect x="950.3" y="292.4" width="73.1" height="73.1" fill="#ffffff"/><rect x="1023.3999999999999" y="292.4" width="73.1" height="73.1" fill="#ffffff"/><rect x="1023.4" y="292.4" width="36.55" height="36.55" fill="#b5dcbb"/><polygon points="1059.95,292.4 1059.95,328.95 1023.4,328.95" fill="#57b065"/><rect x="1059.95" y="292.4" width="36.55" height="36.55" fill="#eaf5eb"/><polygon points="1059.95,292.4 1096.5,328.95 1059.95,328.95" fill="#a0d2a8"/><rect x="1023.4" y="328.95" width="36.55" height="36.55" fill="#ffffff"/><polygon points="1023.4,328.95 1059.95,328.95 1023.4,365.5" fill="#52ad60"/><rect x="1059.95" y="328.95" width="36.55" height="36.55" fill="#cce7d0"/><polygon points="1059.95,328.95 1096.5,328.95 1096.5,365.5" fill="#b5dcbb"/><rect x="1096.5" y="292.4" width="73.1" height="73.1" fill="#d0e9d4"/><polygon points="1096.5,292.4 1169.6,365.5 1096.5,365.5" fill="#ffffff"/><rect x="0" y="365.5" width="73.1" height="73.1" fill="#ffffff"/><path d="M 0 438.6 A 73.1 73.1 0 0 1  73.1 365.5 L 73.1 438.6" fill="#7ec288"/><rect x="73.1" y="365.5" width="73.1" height="73.1" fill="#97cea0"/><polygon points="73.1,365.5 146.2,365.5 146.2,438.6" fill="#ffffff"/><rect x="146.2" y="365.5" width="73.1" height="73.1" fill="#ffffff"/><rect x="146.2" y="365.5" width="36.55" height="36.55" fill="#7cc187"/><path d="M 146.2 402.05 A 36.55 36.55 0 0 0 182.75 365.5 L 146.2 365.5" fill="#ffffff"/><rect x="182.75" y="365.5" width="36.55" height="36.55" fill="#4eab5c"/><path d="M 182.75 365.5 A 36.55 36.55 0 0 0 219.3 402.05 L 219.3 365.5" fill="#ffffff"/><rect x="146.2" y="402.05" width="36.55" height="36.55" fill="#ffffff"/><path d="M 146.2 402.05 A 36.55 36.55 0 0 1 182.75 438.6 L 146.2 438.6" fill="#e7f4e9"/><rect x="182.75" y="402.05" width="36.55" height="36.55" fill="#62b56f"/><path d="M 182.75 438.6 A 36.55 36.55 0 0 1  219.3 402.05 L 219.3 438.6" fill="#ffffff"/><rect x="219.3" y="365.5" width="73.1" height="73.1" fill="#ffffff"/><rect x="219.3" y="365.5" width="73.1" height="73.1" fill="#bfe1c5"/><rect x="292.4" y="365.5" width="73.1" height="73.1" fill="#ffffff"/><rect x="292.4" y="365.5" width="36.55" height="36.55" fill="#ffffff"/><path d="M 292.4 402.05 A 36.55 36.55 0 0 1  328.95 365.5 L 328.95 402.05" fill="#ffffff"/><rect x="328.95" y="365.5" width="36.55" height="36.55" fill="#ffffff"/><path d="M 328.95 365.5 A 36.55 36.55 0 0 1 365.5 402.05 L 328.95 402.05" fill="#ffffff"/><rect x="292.4" y="402.05" width="36.55" height="36.55" fill="#ffffff"/><path d="M 292.4 402.05 A 36.55 36.55 0 0 0 328.95 438.6 L 328.95 402.05" fill="#ffffff"/><rect x="328.95" y="402.05" width="36.55" height="36.55" fill="#b7ddbd"/><path d="M 328.95 438.6 A 36.55 36.55 0 0 0 365.5 402.05 L 328.95 402.05" fill="#ffffff"/><rect x="365.5" y="365.5" width="73.1" height="73.1" fill="#68b874"/><rect x="365.5" y="365.5" width="73.1" height="73.1" fill="#ffffff"/><rect x="438.59999999999997" y="365.5" width="73.1" height="73.1" fill="#ffffff"/><rect x="438.6" y="365.5" width="36.55" height="36.55" fill="#ffffff"/><circle cx="456.875" cy="383.775" r="18.275" fill="#ffffff"/><rect x="475.15" y="365.5" width="36.55" height="36.55" fill="#ffffff"/><rect x="475.15" y="365.5" width="36.55" height="36.55" fill="#55af63"/><rect x="438.6" y="402.05" width="36.55" height="36.55" fill="#fafdfb"/><circle cx="456.875" cy="420.325" r="18.275" fill="#42a652"/><rect x="475.15" y="402.05" width="36.55" height="36.55" fill="#f5faf6"/><rect x="475.15" y="402.05" width="36.55" height="36.55" fill="#cee8d2"/><rect x="511.7" y="365.5" width="73.1" height="73.1" fill="#ffffff"/><polygon points="584.8,365.5 584.8,438.6 511.7,438.6" fill="#ffffff"/><rect x="584.8" y="365.5" width="73.1" height="73.1" fill="#ffffff"/><rect x="584.8" y="365.5" width="36.55" height="36.55" fill="#59b167"/><polygon points="621.3499999999999,365.5 621.3499999999999,402.05 584.8,402.05" fill="#42a651"/><rect x="621.35" y="365.5" width="36.55" height="36.55" fill="#ffffff"/><polygon points="621.35,365.5 657.9,402.05 621.35,402.05" fill="#ffffff"/><rect x="584.8" y="402.05" width="36.55" height="36.55" fill="#94cc9c"/><polygon points="584.8,402.05 621.3499999999999,402.05 621.3499999999999,438.6" fill="#85c58f"/><rect x="621.35" y="402.05" width="36.55" height="36.55" fill="#95cd9d"/><polygon points="621.35,402.05 657.9,402.05 621.35,438.6" fill="#ffffff"/><rect x="657.9" y="365.5" width="73.1" height="73.1" fill="#ffffff"/><rect x="657.9" y="365.5" width="36.55" height="36.55" fill="#ffffff"/><path d="M 657.9 365.5 A 36.55 36.55 0 0 1 694.4499999999999 402.05 L 657.9 402.05" fill="#aed9b4"/><rect x="694.45" y="365.5" width="36.55" height="36.55" fill="#ffffff"/><path d="M 694.45 402.05 A 36.55 36.55 0 0 1  731 365.5 L 731 402.05" fill="#ffffff"/><rect x="657.9" y="402.05" width="36.55" height="36.55" fill="#bee0c3"/><path d="M 657.9 438.6 A 36.55 36.55 0 0 0 694.4499999999999 402.05 L 657.9 402.05" fill="#e8f4ea"/><rect x="694.45" y="402.05" width="36.55" height="36.55" fill="#ffffff"/><path d="M 694.45 402.05 A 36.55 36.55 0 0 0 731 438.6 L 731 402.05" fill="#ffffff"/><rect x="731" y="365.5" width="73.1" height="73.1" fill="#ffffff"/><polygon points="731,365.5 804.1,365.5 804.1,438.6" fill="#fdfefd"/><rect x="804.0999999999999" y="365.5" width="73.1" height="73.1" fill="#ffffff"/><rect x="804.1" y="365.5" width="36.55" height="36.55" fill="#f2f9f3"/><path d="M 804.1 402.05 A 36.55 36.55 0 0 1 840.65 365.5 L 840.65 374.6375 A 27.412499999999998 27.412499999999998 0 0 0 813.2375000000001 402.05" fill="#ffffff"/><rect x="840.65" y="365.5" width="36.55" height="36.55" fill="#ffffff"/><path d="M 840.65 365.5 A 36.55 36.55 0 0 1 877.1999999999999 402.05 L 868.0625 402.05 A 27.412499999999998 27.412499999999998 0 0 0 840.65 374.6375" fill="#dff0e2"/><rect x="804.1" y="402.05" width="36.55" height="36.55" fill="#add8b4"/><path d="M 804.1 402.05 A 36.55 36.55 0 0 0 840.65 438.6 L 840.65 429.46250000000003 A 27.412499999999998 27.412499999999998 0 0 1 813.2375000000001 402.05" fill="#cee8d2"/><rect x="840.65" y="402.05" width="36.55" height="36.55" fill="#c1e2c6"/><path d="M 840.65 438.6 A 36.55 36.55 0 0 0 877.1999999999999 402.05 L 868.0625 402.05 A 27.412499999999998 27.412499999999998 0 0 1 840.65 429.46250000000003" fill="#3aa24a"/><rect x="877.1999999999999" y="365.5" width="73.1" height="73.1" fill="#ffffff"/><rect x="877.2" y="365.5" width="36.55" height="36.55" fill="#68b875"/><path d="M 877.2 402.05 A 36.55 36.55 0 0 0 913.75 365.5 L 877.2 365.5" fill="#ffffff"/><rect x="913.75" y="365.5" width="36.55" height="36.55" fill="#61b46e"/><path d="M 913.75 365.5 A 36.55 36.55 0 0 0 950.3 402.05 L 950.3 365.5" fill="#5cb269"/><rect x="877.2" y="402.05" width="36.55" height="36.55" fill="#90cb99"/><path d="M 877.2 402.05 A 36.55 36.55 0 0 1 913.75 438.6 L 877.2 438.6" fill="#ffffff"/><rect x="913.75" y="402.05" width="36.55" height="36.55" fill="#ffffff"/><path d="M 913.75 438.6 A 36.55 36.55 0 0 1  950.3 402.05 L 950.3 438.6" fill="#8cc895"/><rect x="950.3" y="365.5" width="73.1" height="73.1" fill="#ffffff"/><path d="M 950.3 438.6 A 73.1 73.1 0 0 1  1023.4 365.5 L 950.3 438.6 A 73.1 73.1 0 0 0 1023.4 365.5" fill="#ffffff"/><rect x="1023.3999999999999" y="365.5" width="73.1" height="73.1" fill="#ffffff"/><rect x="1023.4" y="365.5" width="36.55" height="36.55" fill="#ffffff"/><path d="M 1023.4 402.05 A 36.55 36.55 0 0 1  1059.95 365.5 L 1059.95 402.05" fill="#42a652"/><rect x="1059.95" y="365.5" width="36.55" height="36.55" fill="#ffffff"/><path d="M 1059.95 365.5 A 36.55 36.55 0 0 1 1096.5 402.05 L 1059.95 402.05" fill="#ffffff"/><rect x="1023.4" y="402.05" width="36.55" height="36.55" fill="#ffffff"/><path d="M 1023.4 402.05 A 36.55 36.55 0 0 0 1059.95 438.6 L 1059.95 402.05" fill="#ffffff"/><rect x="1059.95" y="402.05" width="36.55" height="36.55" fill="#9acfa2"/><path d="M 1059.95 438.6 A 36.55 36.55 0 0 0 1096.5 402.05 L 1059.95 402.05" fill="#72bc7d"/><rect x="1096.5" y="365.5" width="73.1" height="73.1" fill="#f3faf4"/><path d="M 1096.5 365.5 A 73.1 73.1 0 0 1  1169.6 438.6 L 1096.5 365.5 A 73.1 73.1 0 0 0 1169.6 438.6" fill="#ffffff"/><rect x="0" y="438.6" width="73.1" height="73.1" fill="#ffffff"/><polygon points="0,438.6 73.1,438.6 0,511.70000000000005" fill="#ffffff"/><rect x="73.1" y="438.6" width="73.1" height="73.1" fill="#49a957"/><rect x="73.1" y="438.6" width="73.1" height="73.1" fill="#ffffff"/><rect x="146.2" y="438.6" width="73.1" height="73.1" fill="#43a652"/><path d="M 146.2 438.6 A 73.1 73.1 0 0 1 219.29999999999998 511.70000000000005 L 146.2 511.70000000000005" fill="#ffffff"/><rect x="219.3" y="438.6" width="73.1" height="73.1" fill="#ffffff"/><rect x="219.3" y="438.6" width="73.1" height="73.1" fill="#9bd0a3"/><rect x="292.4" y="438.59999999999997" width="73.1" height="73.1" fill="#ffffff"/><rect x="292.4" y="438.6" width="36.55" height="36.55" fill="#eaf5eb"/><circle cx="310.67499999999995" cy="456.875" r="18.275" fill="#ffffff"/><rect x="328.95" y="438.6" width="36.55" height="36.55" fill="#ffffff"/><rect x="328.95" y="438.6" width="36.55" height="36.55" fill="#7cc187"/><rect x="292.4" y="475.15" width="36.55" height="36.55" fill="#ffffff"/><circle cx="310.67499999999995" cy="493.42499999999995" r="18.275" fill="#ffffff"/><rect x="328.95" y="475.15" width="36.55" height="36.55" fill="#ffffff"/><rect x="328.95" y="475.15" width="36.55" height="36.55" fill="#ffffff"/><rect x="365.5" y="438.59999999999997" width="73.1" height="73.1" fill="#ffffff"/><rect x="365.5" y="438.6" width="36.55" height="36.55" fill="#d2ead6"/><path d="M 365.5 475.15000000000003 A 36.55 36.55 0 0 0 402.05 438.6 L 365.5 438.6" fill="#dceedf"/><rect x="402.05" y="438.6" width="36.55" height="36.55" fill="#ffffff"/><path d="M 402.05 438.6 A 36.55 36.55 0 0 0 438.6 475.15000000000003 L 438.6 438.6" fill="#ffffff"/><rect x="365.5" y="475.15" width="36.55" height="36.55" fill="#e3f2e5"/><path d="M 365.5 475.15 A 36.55 36.55 0 0 1 402.05 511.7 L 365.5 511.7" fill="#b3dbba"/><rect x="402.05" y="475.15" width="36.55" height="36.55" fill="#b0dab6"/><path d="M 402.05 511.7 A 36.55 36.55 0 0 1  438.6 475.15 L 438.6 511.7" fill="#b5dcbb"/><rect x="438.6" y="438.6" width="73.1" height="73.1" fill="#66b773"/><rect x="438.6" y="438.6" width="73.1" height="73.1" fill="#ffffff"/><rect x="511.7" y="438.6" width="73.1" height="73.1" fill="#ffffff"/><rect x="511.7" y="438.6" width="73.1" height="73.1" fill="#f9fcfa"/><rect x="584.8" y="438.59999999999997" width="73.1" height="73.1" fill="#ffffff"/><rect x="584.8" y="438.6" width="36.55" height="36.55" fill="#ffffff"/><polygon points="621.3499999999999,438.6 621.3499999999999,475.15000000000003 584.8,475.15000000000003" fill="#bcdfc2"/><rect x="621.35" y="438.6" width="36.55" height="36.55" fill="#ffffff"/><polygon points="621.35,438.6 657.9,475.15000000000003 621.35,475.15000000000003" fill="#82c48c"/><rect x="584.8" y="475.15" width="36.55" height="36.55" fill="#ffffff"/><polygon points="584.8,475.15 621.3499999999999,475.15 584.8,511.7" fill="#ffffff"/><rect x="621.35" y="475.15" width="36.55" height="36.55" fill="#ffffff"/><polygon points="621.35,475.15 657.9,475.15 657.9,511.7" fill="#ffffff"/><rect x="657.9" y="438.59999999999997" width="73.1" height="73.1" fill="#ffffff"/><rect x="657.9" y="438.6" width="36.55" height="36.55" fill="#ffffff"/><path d="M 657.9 438.6 A 36.55 36.55 0 0 0 694.4499999999999 475.15000000000003 L 694.4499999999999 438.6" fill="#3ca34c"/><rect x="694.45" y="438.6" width="36.55" height="36.55" fill="#71bc7d"/><path d="M 694.45 475.15000000000003 A 36.55 36.55 0 0 0 731 438.6 L 694.45 438.6" fill="#bde0c2"/><rect x="657.9" y="475.15" width="36.55" height="36.55" fill="#ffffff"/><path d="M 657.9 511.7 A 36.55 36.55 0 0 1  694.4499999999999 475.15 L 694.4499999999999 511.7" fill="#d5ebd9"/><rect x="694.45" y="475.15" width="36.55" height="36.55" fill="#bde0c2"/><path d="M 694.45 475.15 A 36.55 36.55 0 0 1 731 511.7 L 694.45 511.7" fill="#afd9b6"/><rect x="731" y="438.6" width="73.1" height="73.1" fill="#57b065"/><rect x="731" y="438.6" width="73.1" height="73.1" fill="#3ca34c"/><rect x="804.1" y="438.6" width="73.1" height="73.1" fill="#ffffff"/><path d="M 804.1 438.6 A 73.1 73.1 0 0 1 877.2 511.70000000000005 L 804.1 511.70000000000005" fill="#c7e4cb"/><rect x="877.2" y="438.6" width="73.1" height="73.1" fill="#ffffff"/><path d="M 877.2 438.6 A 73.1 73.1 0 0 0 950.3000000000001 511.70000000000005 L 950.3000000000001 438.6" fill="#ffffff"/><rect x="950.3" y="438.59999999999997" width="73.1" height="73.1" fill="#ffffff"/><rect x="950.3" y="438.6" width="36.55" height="36.55" fill="#d1e9d4"/><path d="M 950.3 438.6 A 36.55 36.55 0 0 1 986.8499999999999 475.15000000000003 L 950.3 475.15000000000003" fill="#f6fbf7"/><rect x="986.85" y="438.6" width="36.55" height="36.55" fill="#ffffff"/><path d="M 986.85 475.15000000000003 A 36.55 36.55 0 0 1  1023.4 438.6 L 1023.4 475.15000000000003" fill="#e5f3e7"/><rect x="950.3" y="475.15" width="36.55" height="36.55" fill="#ffffff"/><path d="M 950.3 511.7 A 36.55 36.55 0 0 0 986.8499999999999 475.15 L 950.3 475.15" fill="#ffffff"/><rect x="986.85" y="475.15" width="36.55" height="36.55" fill="#c1e2c6"/><path d="M 986.85 475.15 A 36.55 36.55 0 0 0 1023.4 511.7 L 1023.4 475.15" fill="#ffffff"/><rect x="1023.4" y="438.6" width="73.1" height="73.1" fill="#67b773"/><path d="M 1023.4 438.6 A 73.1 73.1 0 0 1  1096.5 511.70000000000005 L 1023.4 438.6 A 73.1 73.1 0 0 0 1096.5 511.70000000000005" fill="#ffffff"/><rect x="1096.5" y="438.59999999999997" width="73.1" height="73.1" fill="#ffffff"/><rect x="1096.5" y="438.6" width="36.55" height="36.55" fill="#ffffff"/><polygon points="1133.05,438.6 1133.05,475.15000000000003 1096.5,475.15000000000003" fill="#ffffff"/><rect x="1133.05" y="438.6" width="36.55" height="36.55" fill="#ffffff"/><polygon points="1133.05,438.6 1169.6,475.15000000000003 1133.05,475.15000000000003" fill="#fbfdfb"/><rect x="1096.5" y="475.15" width="36.55" height="36.55" fill="#d0e9d4"/><polygon points="1096.5,475.15 1133.05,475.15 1133.05,511.7" fill="#c2e2c7"/><rect x="1133.05" y="475.15" width="36.55" height="36.55" fill="#ffffff"/><polygon points="1133.05,475.15 1169.6,475.15 1133.05,511.7" fill="#ffffff"/><rect x="0" y="511.69999999999993" width="73.1" height="73.1" fill="#ffffff"/><rect x="0" y="511.7" width="36.55" height="36.55" fill="#a2d3aa"/><path d="M 0 511.7 A 36.55 36.55 0 0 0 36.55 548.25 L 36.55 511.7" fill="#6ab976"/><rect x="36.55" y="511.7" width="36.55" height="36.55" fill="#ffffff"/><path d="M 36.55 548.25 A 36.55 36.55 0 0 0 73.1 511.7 L 36.55 511.7" fill="#ffffff"/><rect x="0" y="548.25" width="36.55" height="36.55" fill="#ffffff"/><path d="M 0 584.8 A 36.55 36.55 0 0 1  36.55 548.25 L 36.55 584.8" fill="#ffffff"/><rect x="36.55" y="548.25" width="36.55" height="36.55" fill="#45a754"/><path d="M 36.55 548.25 A 36.55 36.55 0 0 1 73.1 584.8 L 36.55 584.8" fill="#a5d5ac"/><rect x="73.1" y="511.69999999999993" width="73.1" height="73.1" fill="#ffffff"/><rect x="73.1" y="511.7" width="36.55" height="36.55" fill="#5db36a"/><path d="M 73.1 548.25 A 36.55 36.55 0 0 0 109.64999999999999 511.7 L 73.1 511.7" fill="#97cea0"/><rect x="109.65" y="511.7" width="36.55" height="36.55" fill="#ffffff"/><path d="M 109.65 511.7 A 36.55 36.55 0 0 0 146.2 548.25 L 146.2 511.7" fill="#add8b4"/><rect x="73.1" y="548.25" width="36.55" height="36.55" fill="#5cb269"/><path d="M 73.1 548.25 A 36.55 36.55 0 0 1 109.64999999999999 584.8 L 73.1 584.8" fill="#ffffff"/><rect x="109.65" y="548.25" width="36.55" height="36.55" fill="#87c691"/><path d="M 109.65 584.8 A 36.55 36.55 0 0 1  146.2 548.25 L 146.2 584.8" fill="#ffffff"/><rect x="146.2" y="511.69999999999993" width="73.1" height="73.1" fill="#ffffff"/><rect x="146.2" y="511.7" width="36.55" height="36.55" fill="#f1f9f3"/><path d="M 146.2 511.7 A 36.55 36.55 0 0 1 182.75 548.25 L 146.2 548.25" fill="#e2f1e4"/><rect x="182.75" y="511.7" width="36.55" height="36.55" fill="#92cc9b"/><path d="M 182.75 548.25 A 36.55 36.55 0 0 1  219.3 511.7 L 219.3 548.25" fill="#54ae62"/><rect x="146.2" y="548.25" width="36.55" height="36.55" fill="#d5ebd8"/><path d="M 146.2 584.8 A 36.55 36.55 0 0 0 182.75 548.25 L 146.2 548.25" fill="#ffffff"/><rect x="182.75" y="548.25" width="36.55" height="36.55" fill="#ffffff"/><path d="M 182.75 548.25 A 36.55 36.55 0 0 0 219.3 584.8 L 219.3 548.25" fill="#42a651"/><rect x="219.3" y="511.7" width="73.1" height="73.1" fill="#ffffff"/><polygon points="219.3,511.7 292.4,511.7 292.4,584.8" fill="#ffffff"/><rect x="292.4" y="511.7" width="73.1" height="73.1" fill="#b8ddbd"/><path d="M 292.4 584.8 A 73.1 73.1 0 0 1  365.5 511.7 L 292.4 584.8 A 73.1 73.1 0 0 0 365.5 511.7" fill="#ffffff"/><rect x="365.5" y="511.7" width="73.1" height="73.1" fill="#95cd9d"/><path d="M 365.5 584.8 A 73.1 73.1 0 0 0 438.6 511.7 L 365.5 511.7" fill="#7dc287"/><rect x="438.59999999999997" y="511.69999999999993" width="73.1" height="73.1" fill="#ffffff"/><rect x="438.6" y="511.7" width="36.55" height="36.55" fill="#63b570"/><polygon points="475.15000000000003,511.7 475.15000000000003,548.25 438.6,548.25" fill="#4cab5b"/><rect x="475.15" y="511.7" width="36.55" height="36.55" fill="#ffffff"/><polygon points="475.15,511.7 511.7,548.25 475.15,548.25" fill="#ffffff"/><rect x="438.6" y="548.25" width="36.55" height="36.55" fill="#ffffff"/><polygon points="438.6,548.25 475.15000000000003,548.25 475.15000000000003,584.8" fill="#ffffff"/><rect x="475.15" y="548.25" width="36.55" height="36.55" fill="#a5d4ac"/><polygon points="475.15,548.25 511.7,548.25 475.15,584.8" fill="#ffffff"/><rect x="511.69999999999993" y="511.69999999999993" width="73.1" height="73.1" fill="#ffffff"/><rect x="511.7" y="511.7" width="36.55" height="36.55" fill="#ffffff"/><path d="M 511.7 511.7 A 36.55 36.55 0 0 1 548.25 548.25 L 511.7 548.25" fill="#92cb9b"/><rect x="548.25" y="511.7" width="36.55" height="36.55" fill="#ffffff"/><path d="M 548.25 548.25 A 36.55 36.55 0 0 1  584.8 511.7 L 584.8 548.25" fill="#d4ebd8"/><rect x="511.7" y="548.25" width="36.55" height="36.55" fill="#c9e6cd"/><path d="M 511.7 584.8 A 36.55 36.55 0 0 0 548.25 548.25 L 511.7 548.25" fill="#ffffff"/><rect x="548.25" y="548.25" width="36.55" height="36.55" fill="#ffffff"/><path d="M 548.25 548.25 A 36.55 36.55 0 0 0 584.8 584.8 L 584.8 548.25" fill="#a6d5ad"/><rect x="584.8" y="511.7" width="73.1" height="73.1" fill="#ffffff"/><path d="M 584.8 584.8 A 73.1 73.1 0 0 1  657.9 511.7 L 657.9 584.8" fill="#ffffff"/><rect x="657.9" y="511.7" width="73.1" height="73.1" fill="#ffffff"/><polygon points="731,511.7 731,584.8 657.9,584.8" fill="#ffffff"/><rect x="731" y="511.69999999999993" width="73.1" height="73.1" fill="#ffffff"/><rect x="731" y="511.7" width="36.55" height="36.55" fill="#ffffff"/><polygon points="767.55,511.7 767.55,548.25 731,548.25" fill="#ffffff"/><rect x="767.55" y="511.7" width="36.55" height="36.55" fill="#ffffff"/><polygon points="767.55,511.7 804.0999999999999,511.7 767.55,548.25" fill="#ffffff"/><rect x="731" y="548.25" width="36.55" height="36.55" fill="#42a652"/><polygon points="731,548.25 767.55,548.25 767.55,584.8" fill="#ffffff"/><rect x="767.55" y="548.25" width="36.55" height="36.55" fill="#48a957"/><polygon points="767.55,548.25 804.0999999999999,584.8 767.55,584.8" fill="#52ae61"/><rect x="804.1" y="511.7" width="73.1" height="73.1" fill="#8ac894"/><path d="M 804.1 511.7 A 73.1 73.1 0 0 1 877.2 584.8 L 804.1 584.8" fill="#ffffff"/><rect x="877.1999999999999" y="511.69999999999993" width="73.1" height="73.1" fill="#ffffff"/><rect x="877.2" y="511.7" width="36.55" height="36.55" fill="#ffffff"/><path d="M 877.2 511.7 A 36.55 36.55 0 0 1 913.75 548.25 L 877.2 548.25" fill="#cce7d0"/><rect x="913.75" y="511.7" width="36.55" height="36.55" fill="#ebf5ec"/><path d="M 913.75 548.25 A 36.55 36.55 0 0 1  950.3 511.7 L 950.3 548.25" fill="#4aaa59"/><rect x="877.2" y="548.25" width="36.55" height="36.55" fill="#dff0e2"/><path d="M 877.2 584.8 A 36.55 36.55 0 0 0 913.75 548.25 L 877.2 548.25" fill="#a9d6b0"/><rect x="913.75" y="548.25" width="36.55" height="36.55" fill="#ffffff"/><path d="M 913.75 548.25 A 36.55 36.55 0 0 0 950.3 584.8 L 950.3 548.25" fill="#dbeede"/><rect x="950.3" y="511.69999999999993" width="73.1" height="73.1" fill="#ffffff"/><rect x="950.3" y="511.7" width="36.55" height="36.55" fill="#ffffff"/><polygon points="986.8499999999999,511.7 986.8499999999999,548.25 950.3,548.25" fill="#ffffff"/><rect x="986.85" y="511.7" width="36.55" height="36.55" fill="#6dba79"/><polygon points="986.85,511.7 1023.4,548.25 986.85,548.25" fill="#53ae61"/><rect x="950.3" y="548.25" width="36.55" height="36.55" fill="#ffffff"/><polygon points="950.3,548.25 986.8499999999999,548.25 950.3,584.8" fill="#ffffff"/><rect x="986.85" y="548.25" width="36.55" height="36.55" fill="#ffffff"/><polygon points="986.85,548.25 1023.4,548.25 1023.4,584.8" fill="#5fb36c"/><rect x="1023.3999999999999" y="511.69999999999993" width="73.1" height="73.1" fill="#ffffff"/><rect x="1023.4" y="511.7" width="36.55" height="36.55" fill="#ffffff"/><circle cx="1041.675" cy="529.975" r="18.275" fill="#a4d4ab"/><rect x="1059.95" y="511.7" width="36.55" height="36.55" fill="#ffffff"/><rect x="1059.95" y="511.7" width="36.55" height="36.55" fill="#ffffff"/><rect x="1023.4" y="548.25" width="36.55" height="36.55" fill="#ffffff"/><circle cx="1041.675" cy="566.525" r="18.275" fill="#ffffff"/><rect x="1059.95" y="548.25" width="36.55" height="36.55" fill="#ffffff"/><rect x="1059.95" y="548.25" width="36.55" height="36.55" fill="#47a856"/><rect x="1096.5" y="511.69999999999993" width="73.1" height="73.1" fill="#ffffff"/><rect x="1096.5" y="511.7" width="36.55" height="36.55" fill="#c5e4c9"/><polygon points="1133.05,511.7 1133.05,548.25 1096.5,548.25" fill="#cfe8d3"/><rect x="1133.05" y="511.7" width="36.55" height="36.55" fill="#ffffff"/><polygon points="1133.05,511.7 1169.6,548.25 1133.05,548.25" fill="#ffffff"/><rect x="1096.5" y="548.25" width="36.55" height="36.55" fill="#b3dbb9"/><polygon points="1096.5,548.25 1133.05,548.25 1133.05,584.8" fill="#fdfefd"/><rect x="1133.05" y="548.25" width="36.55" height="36.55" fill="#ffffff"/><polygon points="1133.05,548.25 1169.6,548.25 1133.05,584.8" fill="#9dd1a5"/><rect x="0" y="584.8" width="73.1" height="73.1" fill="#6cb978"/><path d="M 0 584.8 A 73.1 73.1 0 0 1  73.1 657.9 L 0 584.8 A 73.1 73.1 0 0 0 73.1 657.9" fill="#ffffff"/><rect x="73.1" y="584.8" width="73.1" height="73.1" fill="#ffffff"/><rect x="73.1" y="584.8" width="36.55" height="36.55" fill="#43a652"/><polygon points="109.64999999999999,584.8 109.64999999999999,621.3499999999999 73.1,621.3499999999999" fill="#75be80"/><rect x="109.65" y="584.8" width="36.55" height="36.55" fill="#99cfa1"/><polygon points="109.65,584.8 146.2,584.8 109.65,621.3499999999999" fill="#a7d6af"/><rect x="73.1" y="621.35" width="36.55" height="36.55" fill="#51ad60"/><polygon points="73.1,621.35 109.64999999999999,621.35 109.64999999999999,657.9" fill="#ffffff"/><rect x="109.65" y="621.35" width="36.55" height="36.55" fill="#f7fbf8"/><polygon points="109.65,621.35 146.2,657.9 109.65,657.9" fill="#66b773"/><rect x="146.2" y="584.8" width="73.1" height="73.1" fill="#ffffff"/><polygon points="146.2,584.8 219.29999999999998,584.8 219.29999999999998,657.9" fill="#ffffff"/><rect x="219.3" y="584.8" width="73.1" height="73.1" fill="#ffffff"/><polygon points="219.3,584.8 292.4,584.8 292.4,657.9" fill="#ffffff"/><rect x="292.4" y="584.8" width="73.1" height="73.1" fill="#ffffff"/><rect x="292.4" y="584.8" width="36.55" height="36.55" fill="#ffffff"/><path d="M 292.4 621.3499999999999 A 36.55 36.55 0 0 1  328.95 584.8 L 328.95 621.3499999999999" fill="#4aa958"/><rect x="328.95" y="584.8" width="36.55" height="36.55" fill="#78bf83"/><path d="M 328.95 584.8 A 36.55 36.55 0 0 1 365.5 621.3499999999999 L 328.95 621.3499999999999" fill="#fafdfa"/><rect x="292.4" y="621.35" width="36.55" height="36.55" fill="#4cab5b"/><path d="M 292.4 621.35 A 36.55 36.55 0 0 0 328.95 657.9 L 328.95 621.35" fill="#ffffff"/><rect x="328.95" y="621.35" width="36.55" height="36.55" fill="#fbfdfb"/><path d="M 328.95 657.9 A 36.55 36.55 0 0 0 365.5 621.35 L 328.95 621.35" fill="#41a550"/><rect x="365.5" y="584.8" width="73.1" height="73.1" fill="#ffffff"/><path d="M 365.5 584.8 A 73.1 73.1 0 0 1  438.6 657.9 L 365.5 584.8 A 73.1 73.1 0 0 0 438.6 657.9" fill="#45a754"/><rect x="438.6" y="584.8" width="73.1" height="73.1" fill="#ffffff"/><path d="M 438.6 657.9 A 73.1 73.1 0 0 1  511.70000000000005 584.8 L 511.70000000000005 657.9" fill="#65b672"/><rect x="511.69999999999993" y="584.8" width="73.1" height="73.1" fill="#ffffff"/><rect x="511.7" y="584.8" width="36.55" height="36.55" fill="#4dab5c"/><circle cx="529.975" cy="603.0749999999999" r="18.275" fill="#9bd0a3"/><rect x="548.25" y="584.8" width="36.55" height="36.55" fill="#ffffff"/><rect x="548.25" y="584.8" width="36.55" height="36.55" fill="#ffffff"/><rect x="511.7" y="621.35" width="36.55" height="36.55" fill="#c6e4cb"/><circle cx="529.975" cy="639.625" r="18.275" fill="#ffffff"/><rect x="548.25" y="621.35" width="36.55" height="36.55" fill="#e2f2e5"/><rect x="548.25" y="621.35" width="36.55" height="36.55" fill="#ffffff"/><rect x="584.8" y="584.8" width="73.1" height="73.1" fill="#ffffff"/><path d="M 584.8 657.9 A 73.1 73.1 0 0 1  657.9 584.8 L 657.9 657.9" fill="#a3d4ab"/><rect x="657.9" y="584.8" width="73.1" height="73.1" fill="#e7f4e9"/><rect x="657.9" y="584.8" width="73.1" height="73.1" fill="#cbe7cf"/><rect x="731" y="584.8" width="73.1" height="73.1" fill="#ffffff"/><rect x="731" y="584.8" width="36.55" height="36.55" fill="#ffffff"/><path d="M 731 621.3499999999999 A 36.55 36.55 0 0 1  767.55 584.8 L 767.55 621.3499999999999" fill="#b1dab7"/><rect x="767.55" y="584.8" width="36.55" height="36.55" fill="#73bd7e"/><path d="M 767.55 584.8 A 36.55 36.55 0 0 1 804.0999999999999 621.3499999999999 L 767.55 621.3499999999999" fill="#ffffff"/><rect x="731" y="621.35" width="36.55" height="36.55" fill="#ffffff"/><path d="M 731 621.35 A 36.55 36.55 0 0 0 767.55 657.9 L 767.55 621.35" fill="#44a753"/><rect x="767.55" y="621.35" width="36.55" height="36.55" fill="#ffffff"/><path d="M 767.55 657.9 A 36.55 36.55 0 0 0 804.0999999999999 621.35 L 767.55 621.35" fill="#ffffff"/><rect x="804.1" y="584.8" width="73.1" height="73.1" fill="#98cfa1"/><polygon points="804.1,584.8 877.2,584.8 877.2,657.9" fill="#79c084"/><rect x="877.1999999999999" y="584.8" width="73.1" height="73.1" fill="#ffffff"/><rect x="877.2" y="584.8" width="36.55" height="36.55" fill="#ffffff"/><polygon points="913.75,584.8 913.75,621.3499999999999 877.2,621.3499999999999" fill="#c1e2c6"/><rect x="913.75" y="584.8" width="36.55" height="36.55" fill="#8bc894"/><polygon points="913.75,584.8 950.3,621.3499999999999 913.75,621.3499999999999" fill="#ffffff"/><rect x="877.2" y="621.35" width="36.55" height="36.55" fill="#48a856"/><polygon points="877.2,621.35 913.75,621.35 913.75,657.9" fill="#ffffff"/><rect x="913.75" y="621.35" width="36.55" height="36.55" fill="#3ea44d"/><polygon points="913.75,621.35 950.3,621.35 913.75,657.9" fill="#68b874"/><rect x="950.3" y="584.8" width="73.1" height="73.1" fill="#8cc995"/><rect x="950.3" y="584.8" width="73.1" height="73.1" fill="#cae6cf"/><rect x="1023.4" y="584.8" width="73.1" height="73.1" fill="#80c38a"/><rect x="1023.4" y="584.8" width="73.1" height="73.1" fill="#86c690"/><rect x="1096.5" y="584.8" width="73.1" height="73.1" fill="#8ac894"/><path d="M 1096.5 584.8 A 73.1 73.1 0 0 0 1169.6 657.9 L 1169.6 584.8" fill="#c6e4cb"/><rect x="0" y="657.9" width="73.1" height="73.1" fill="#ffffff"/><rect x="0" y="657.9" width="73.1" height="73.1" fill="#8cc995"/><rect x="73.1" y="657.9" width="73.1" height="73.1" fill="#dbeede"/><path d="M 73.1 731 A 73.1 73.1 0 0 1  146.2 657.9 L 73.1 731 A 73.1 73.1 0 0 0 146.2 657.9" fill="#5db36a"/><rect x="146.2" y="657.9" width="73.1" height="73.1" fill="#ffffff"/><polygon points="146.2,657.9 219.29999999999998,731 146.2,731" fill="#ffffff"/><rect x="219.3" y="657.9" width="73.1" height="73.1" fill="#ffffff"/><rect x="219.3" y="657.9" width="73.1" height="73.1" fill="#ffffff"/><rect x="292.4" y="657.9" width="73.1" height="73.1" fill="#ffffff"/><rect x="292.4" y="657.9" width="36.55" height="36.55" fill="#ffffff"/><path d="M 292.4 657.9 A 36.55 36.55 0 0 1 328.95 694.4499999999999 L 292.4 694.4499999999999" fill="#ffffff"/><rect x="328.95" y="657.9" width="36.55" height="36.55" fill="#6cba78"/><path d="M 328.95 694.4499999999999 A 36.55 36.55 0 0 1  365.5 657.9 L 365.5 694.4499999999999" fill="#f0f8f1"/><rect x="292.4" y="694.45" width="36.55" height="36.55" fill="#ffffff"/><path d="M 292.4 731 A 36.55 36.55 0 0 0 328.95 694.45 L 292.4 694.45" fill="#ffffff"/><rect x="328.95" y="694.45" width="36.55" height="36.55" fill="#6ab976"/><path d="M 328.95 694.45 A 36.55 36.55 0 0 0 365.5 731 L 365.5 694.45" fill="#e3f2e5"/><rect x="365.5" y="657.9" width="73.1" height="73.1" fill="#ffffff"/><rect x="365.5" y="657.9" width="36.55" height="36.55" fill="#d7ecdb"/><circle cx="383.775" cy="676.175" r="18.275" fill="#b2dab8"/><rect x="402.05" y="657.9" width="36.55" height="36.55" fill="#5fb36c"/><rect x="402.05" y="657.9" width="36.55" height="36.55" fill="#ffffff"/><rect x="365.5" y="694.45" width="36.55" height="36.55" fill="#ffffff"/><circle cx="383.775" cy="712.725" r="18.275" fill="#ffffff"/><rect x="402.05" y="694.45" width="36.55" height="36.55" fill="#ffffff"/><rect x="402.05" y="694.45" width="36.55" height="36.55" fill="#ffffff"/><rect x="438.6" y="657.9" width="73.1" height="73.1" fill="#96cd9f"/><polygon points="438.6,657.9 511.70000000000005,731 438.6,731" fill="#d5ebd9"/><rect x="511.7" y="657.9" width="73.1" height="73.1" fill="#8ec997"/><rect x="511.7" y="657.9" width="73.1" height="73.1" fill="#ffffff"/><rect x="584.8" y="657.9" width="73.1" height="73.1" fill="#ffffff"/><rect x="584.8" y="657.9" width="73.1" height="73.1" fill="#ffffff"/><rect x="657.9" y="657.9" width="73.1" height="73.1" fill="#ffffff"/><path d="M 657.9 657.9 A 73.1 73.1 0 0 1 731 731 L 657.9 731" fill="#ffffff"/><rect x="731" y="657.9" width="73.1" height="73.1" fill="#cfe8d3"/><rect x="731" y="657.9" width="73.1" height="73.1" fill="#91cb9a"/><rect x="804.1" y="657.9" width="73.1" height="73.1" fill="#ffffff"/><polygon points="804.1,657.9 877.2,657.9 804.1,731" fill="#ffffff"/><rect x="877.2" y="657.9" width="73.1" height="73.1" fill="#ffffff"/><rect x="877.2" y="657.9" width="73.1" height="73.1" fill="#ffffff"/><rect x="950.3" y="657.9" width="73.1" height="73.1" fill="#ffffff"/><rect x="950.3" y="657.9" width="36.55" height="36.55" fill="#acd8b3"/><path d="M 950.3 694.4499999999999 A 36.55 36.55 0 0 1  986.8499999999999 657.9 L 986.8499999999999 694.4499999999999" fill="#ffffff"/><rect x="986.85" y="657.9" width="36.55" height="36.55" fill="#ffffff"/><path d="M 986.85 657.9 A 36.55 36.55 0 0 1 1023.4 694.4499999999999 L 986.85 694.4499999999999" fill="#4aaa59"/><rect x="950.3" y="694.45" width="36.55" height="36.55" fill="#ffffff"/><path d="M 950.3 694.45 A 36.55 36.55 0 0 0 986.8499999999999 731 L 986.8499999999999 694.45" fill="#ebf6ed"/><rect x="986.85" y="694.45" width="36.55" height="36.55" fill="#ffffff"/><path d="M 986.85 731 A 36.55 36.55 0 0 0 1023.4 694.45 L 986.85 694.45" fill="#ffffff"/><rect x="1023.3999999999999" y="657.9" width="73.1" height="73.1" fill="#ffffff"/><rect x="1023.4" y="657.9" width="36.55" height="36.55" fill="#ffffff"/><path d="M 1023.4 694.4499999999999 A 36.55 36.55 0 0 0 1059.95 657.9 L 1023.4 657.9" fill="#ffffff"/><rect x="1059.95" y="657.9" width="36.55" height="36.55" fill="#e8f4ea"/><path d="M 1059.95 657.9 A 36.55 36.55 0 0 0 1096.5 694.4499999999999 L 1096.5 657.9" fill="#55af63"/><rect x="1023.4" y="694.45" width="36.55" height="36.55" fill="#ffffff"/><path d="M 1023.4 694.45 A 36.55 36.55 0 0 1 1059.95 731 L 1023.4 731" fill="#e5f3e7"/><rect x="1059.95" y="694.45" width="36.55" height="36.55" fill="#b2dbb9"/><path d="M 1059.95 731 A 36.55 36.55 0 0 1  1096.5 694.45 L 1096.5 731" fill="#ffffff"/><rect x="1096.5" y="657.9" width="73.1" height="73.1" fill="#ffffff"/><path d="M 1096.5 657.9 A 73.1 73.1 0 0 1  1169.6 731 L 1096.5 657.9 A 73.1 73.1 0 0 0 1169.6 731" fill="#ffffff"/></g></svg>